<svg xmlns="http://www.w3.org/2000/svg" width="900" height="500" viewBox="0 0 900 500" role="img" aria-label="Mercedes-Benz Sprinter cargo van">
  <defs>
    <linearGradient id="spr-body" x1="0" y1="0" x2="0" y2="1">
      <stop offset="0%" stop-color="#e8ecf0"/>
      <stop offset="100%" stop-color="#b8c0c8"/>
    </linearGradient>
    <linearGradient id="spr-glass" x1="0" y1="0" x2="1" y2="1">
      <stop offset="0%" stop-color="#8aa4b8"/>
      <stop offset="100%" stop-color="#5a7080"/>
    </linearGradient>
    <filter id="spr-shadow" x="-20%" y="-20%" width="140%" height="140%">
      <feDropShadow dx="0" dy="24" stdDeviation="18" flood-color="#000" flood-opacity="0.35"/>
    </filter>
  </defs>
  <ellipse cx="450" cy="420" rx="320" ry="28" fill="#000" opacity="0.25"/>
  <g filter="url(#spr-shadow)">
    <path d="M120 280 L180 180 L320 150 L680 150 L760 200 L780 280 L780 340 L120 340 Z" fill="url(#spr-body)"/>
    <path d="M180 180 L320 150 L680 150 L720 180 L720 250 L180 250 Z" fill="url(#spr-glass)" opacity="0.9"/>
    <rect x="200" y="200" width="80" height="50" rx="4" fill="#3a4a55" opacity="0.5"/>
    <rect x="300" y="195" width="100" height="55" rx="4" fill="#3a4a55" opacity="0.4"/>
    <path d="M120 280 L140 340 L160 340 L180 280 Z" fill="#909aa4"/>
    <path d="M740 280 L760 340 L780 340 L780 280 Z" fill="#909aa4"/>
    <rect x="130" y="290" width="30" height="50" rx="6" fill="#2a3038"/>
    <rect x="740" y="290" width="30" height="50" rx="6" fill="#2a3038"/>
    <circle cx="155" cy="345" r="38" fill="#1a1f24"/>
    <circle cx="155" cy="345" r="22" fill="#4a5560"/>
    <circle cx="725" cy="345" r="38" fill="#1a1f24"/>
    <circle cx="725" cy="345" r="22" fill="#4a5560"/>
    <rect x="400" y="260" width="200" height="8" rx="2" fill="#003366" opacity="0.6"/>
    <text x="500" y="268" text-anchor="middle" fill="#003366" font-family="sans-serif" font-size="14" font-weight="bold">SPRINTER</text>
  </g>
</svg>
