<svg xmlns="http://www.w3.org/2000/svg" width="900" height="500" viewBox="0 0 900 500" role="img" aria-label="RAM ProMaster 3500 cargo van">
  <defs>
    <linearGradient id="ram-body" x1="0" y1="0" x2="0" y2="1">
      <stop offset="0%" stop-color="#eceef2"/>
      <stop offset="100%" stop-color="#b4bcc6"/>
    </linearGradient>
    <linearGradient id="ram-glass" x1="0" y1="0" x2="1" y2="1">
      <stop offset="0%" stop-color="#8498a8"/>
      <stop offset="100%" stop-color="#556575"/>
    </linearGradient>
    <filter id="ram-shadow" x="-20%" y="-20%" width="140%" height="140%">
      <feDropShadow dx="0" dy="24" stdDeviation="18" flood-color="#000" flood-opacity="0.35"/>
    </filter>
  </defs>
  <ellipse cx="450" cy="420" rx="330" ry="28" fill="#000" opacity="0.25"/>
  <g filter="url(#ram-shadow)">
    <path d="M90 285 L150 165 L310 130 L720 130 L800 175 L820 285 L820 355 L90 355 Z" fill="url(#ram-body)"/>
    <path d="M150 165 L310 130 L450 130 L450 270 L150 270 Z" fill="url(#ram-glass)"/>
    <path d="M450 130 L720 130 L770 175 L770 270 L450 270 Z" fill="url(#ram-glass)" opacity="0.88"/>
    <rect x="100" y="305" width="32" height="50" rx="6" fill="#2a3038"/>
    <rect x="788" y="305" width="32" height="50" rx="6" fill="#2a3038"/>
    <circle cx="132" cy="360" r="38" fill="#1a1f24"/>
    <circle cx="132" cy="360" r="22" fill="#4a5560"/>
    <circle cx="788" cy="360" r="38" fill="#1a1f24"/>
    <circle cx="788" cy="360" r="22" fill="#4a5560"/>
    <rect x="350" y="265" width="220" height="12" rx="2" fill="#CC0000"/>
    <text x="460" y="274" text-anchor="middle" fill="#fff" font-family="sans-serif" font-size="12" font-weight="bold">PROMASTER 3500</text>
  </g>
</svg>
